<svg width="25" height="23" viewBox="0 0 25 23" fill="none" xmlns="http://www.w3.org/2000/svg">
<path d="M16.2618 0C17.8963 0 19.4076 0.86928 20.2295 2.28223L24.1002 8.93759C24.9302 10.3642 24.9302 12.1264 24.1002 13.553L20.2295 20.2084C19.4076 21.6213 17.8963 22.4906 16.2618 22.4906H8.46089C6.82633 22.4906 5.3151 21.6213 4.49329 20.2084L0.622308 13.553C-0.207437 12.1264 -0.207435 10.3642 0.62231 8.93759L4.49329 2.28223C5.3151 0.86928 6.82633 0 8.46089 0H16.2618Z" fill="#20AD96"/>
<path d="M7.83154 16.4662L10.3508 13.947H16.229C16.4517 13.947 16.6653 13.8585 16.8228 13.701C16.9803 13.5435 17.0687 13.3299 17.0687 13.1072V8.06875C17.0687 7.84603 16.9803 7.63245 16.8228 7.47495C16.6653 7.31748 16.4517 7.229 16.229 7.229H8.67128C8.44857 7.229 8.23499 7.31748 8.07749 7.47495C7.92002 7.63245 7.83154 7.84603 7.83154 8.06875V16.4662Z" stroke="white" stroke-width="1.60647" stroke-linecap="round" stroke-linejoin="round"/>
</svg>
