<svg width="429" height="296" viewBox="0 0 429 296" fill="none" xmlns="http://www.w3.org/2000/svg">
<g filter="url(#filter0_d_508_5817)">
<rect width="237" height="104" transform="translate(96 80)" fill="white"/>
<path d="M196.385 127V115.888L194.129 117.568L192.017 114.256L197.369 110.512H200.897V127H196.385ZM213.897 124.96C212.697 126.48 211.081 127.24 209.049 127.24C207.017 127.24 205.393 126.48 204.177 124.96C202.977 123.44 202.377 121.368 202.377 118.744C202.377 116.168 202.977 114.112 204.177 112.576C205.393 111.04 207.017 110.272 209.049 110.272C211.081 110.272 212.697 111.032 213.897 112.552C215.113 114.072 215.721 116.136 215.721 118.744C215.721 121.352 215.113 123.424 213.897 124.96ZM209.049 123.064C209.673 123.064 210.169 122.712 210.537 122.008C210.921 121.304 211.113 120.216 211.113 118.744C211.113 117.432 210.945 116.392 210.609 115.624C210.273 114.84 209.753 114.448 209.049 114.448C208.409 114.448 207.905 114.8 207.537 115.504C207.169 116.208 206.985 117.288 206.985 118.744C206.985 120.072 207.153 121.128 207.489 121.912C207.825 122.68 208.345 123.064 209.049 123.064ZM228.013 124.96C226.813 126.48 225.197 127.24 223.165 127.24C221.133 127.24 219.509 126.48 218.293 124.96C217.093 123.44 216.493 121.368 216.493 118.744C216.493 116.168 217.093 114.112 218.293 112.576C219.509 111.04 221.133 110.272 223.165 110.272C225.197 110.272 226.813 111.032 228.013 112.552C229.229 114.072 229.837 116.136 229.837 118.744C229.837 121.352 229.229 123.424 228.013 124.96ZM223.165 123.064C223.789 123.064 224.285 122.712 224.653 122.008C225.037 121.304 225.229 120.216 225.229 118.744C225.229 117.432 225.061 116.392 224.725 115.624C224.389 114.84 223.869 114.448 223.165 114.448C222.525 114.448 222.021 114.8 221.653 115.504C221.285 116.208 221.101 117.288 221.101 118.744C221.101 120.072 221.269 121.128 221.605 121.912C221.941 122.68 222.461 123.064 223.165 123.064ZM239.585 127.672L236.657 126.424L244.289 109.528L247.193 110.8L239.585 127.672ZM235.193 119.368C233.817 119.368 232.657 118.92 231.713 118.024C230.785 117.112 230.321 115.944 230.321 114.52C230.321 113.176 230.769 112.048 231.665 111.136C232.577 110.208 233.753 109.744 235.193 109.744C236.569 109.744 237.729 110.192 238.673 111.088C239.617 111.968 240.089 113.112 240.089 114.52C240.089 115.88 239.633 117.032 238.721 117.976C237.809 118.904 236.633 119.368 235.193 119.368ZM235.217 116.632C235.761 116.632 236.201 116.432 236.537 116.032C236.873 115.632 237.041 115.144 237.041 114.568C237.041 113.96 236.865 113.464 236.513 113.08C236.161 112.696 235.729 112.504 235.217 112.504C234.689 112.504 234.249 112.704 233.897 113.104C233.561 113.504 233.393 113.992 233.393 114.568C233.393 115.176 233.569 115.672 233.921 116.056C234.273 116.44 234.705 116.632 235.217 116.632ZM248.633 127.24C247.257 127.24 246.097 126.792 245.153 125.896C244.225 124.984 243.761 123.824 243.761 122.416C243.761 121.056 244.209 119.912 245.105 118.984C246.017 118.056 247.193 117.592 248.633 117.592C250.009 117.592 251.161 118.04 252.089 118.936C253.033 119.832 253.505 120.992 253.505 122.416C253.505 123.76 253.049 124.904 252.137 125.848C251.241 126.776 250.073 127.24 248.633 127.24ZM248.657 124.504C249.201 124.504 249.641 124.304 249.977 123.904C250.313 123.504 250.481 123.016 250.481 122.44C250.481 121.832 250.305 121.344 249.953 120.976C249.601 120.592 249.169 120.4 248.657 120.4C248.113 120.4 247.673 120.6 247.337 121C247.001 121.384 246.833 121.864 246.833 122.44C246.833 123.048 247.009 123.544 247.361 123.928C247.713 124.312 248.145 124.504 248.657 124.504Z" fill="#333461"/>
<path d="M195.57 151.072C194.378 151.072 193.37 150.632 192.546 149.752L193.218 148.96C193.514 149.328 193.874 149.608 194.298 149.8C194.722 149.992 195.15 150.088 195.582 150.088C196.11 150.088 196.53 149.972 196.842 149.74C197.162 149.508 197.322 149.188 197.322 148.78C197.322 148.556 197.282 148.364 197.202 148.204C197.13 148.044 197.002 147.904 196.818 147.784C196.634 147.656 196.454 147.556 196.278 147.484C196.11 147.404 195.866 147.304 195.546 147.184C195.49 147.16 195.446 147.144 195.414 147.136C195.102 147.024 194.846 146.928 194.646 146.848C194.454 146.76 194.23 146.64 193.974 146.488C193.726 146.336 193.53 146.184 193.386 146.032C193.25 145.872 193.13 145.676 193.026 145.444C192.922 145.204 192.87 144.94 192.87 144.652C192.87 144.02 193.122 143.488 193.626 143.056C194.13 142.624 194.746 142.404 195.474 142.396C196.434 142.396 197.334 142.728 198.174 143.392L197.538 144.208C196.874 143.648 196.186 143.368 195.474 143.368C195.058 143.368 194.702 143.48 194.406 143.704C194.11 143.92 193.962 144.22 193.962 144.604C193.962 144.764 193.994 144.912 194.058 145.048C194.122 145.176 194.194 145.284 194.274 145.372C194.354 145.452 194.494 145.544 194.694 145.648C194.894 145.752 195.05 145.832 195.162 145.888C195.282 145.936 195.486 146.016 195.774 146.128C196.654 146.464 197.234 146.728 197.514 146.92C198.114 147.328 198.414 147.912 198.414 148.672C198.414 149.424 198.134 150.012 197.574 150.436C197.022 150.86 196.354 151.072 195.57 151.072ZM203.838 145.156H204.81V151H203.838V150.028H203.826C203.338 150.724 202.698 151.072 201.906 151.072C201.21 151.072 200.67 150.872 200.286 150.472C199.902 150.064 199.71 149.452 199.71 148.636V145.156H200.682V148.36C200.682 149.008 200.798 149.476 201.03 149.764C201.27 150.044 201.63 150.184 202.11 150.184C202.59 150.184 202.998 149.988 203.334 149.596C203.67 149.196 203.838 148.66 203.838 147.988V145.156ZM209.015 151.072C208.167 151.072 207.471 150.796 206.927 150.244C206.391 149.684 206.123 148.964 206.123 148.084C206.123 147.204 206.395 146.484 206.939 145.924C207.491 145.364 208.195 145.084 209.051 145.084C209.499 145.084 209.931 145.176 210.347 145.36C210.771 145.536 211.123 145.792 211.403 146.128L210.731 146.716C210.339 146.228 209.795 145.984 209.099 145.984C208.515 145.984 208.035 146.18 207.659 146.572C207.291 146.964 207.107 147.468 207.107 148.084C207.107 148.708 207.291 149.216 207.659 149.608C208.027 149.992 208.507 150.184 209.099 150.184C209.779 150.184 210.331 149.952 210.755 149.488L211.427 150.088C211.171 150.376 210.831 150.612 210.407 150.796C209.983 150.98 209.519 151.072 209.015 151.072ZM215.165 151.072C214.317 151.072 213.621 150.796 213.077 150.244C212.541 149.684 212.273 148.964 212.273 148.084C212.273 147.204 212.545 146.484 213.089 145.924C213.641 145.364 214.345 145.084 215.201 145.084C215.649 145.084 216.081 145.176 216.497 145.36C216.921 145.536 217.273 145.792 217.553 146.128L216.881 146.716C216.489 146.228 215.945 145.984 215.249 145.984C214.665 145.984 214.185 146.18 213.809 146.572C213.441 146.964 213.257 147.468 213.257 148.084C213.257 148.708 213.441 149.216 213.809 149.608C214.177 149.992 214.657 150.184 215.249 150.184C215.929 150.184 216.481 149.952 216.905 149.488L217.577 150.088C217.321 150.376 216.981 150.612 216.557 150.796C216.133 150.98 215.669 151.072 215.165 151.072ZM223.93 147.988C223.93 148.052 223.926 148.136 223.918 148.24L223.906 148.384H219.406C219.47 148.928 219.678 149.364 220.03 149.692C220.39 150.02 220.834 150.184 221.362 150.184C222.042 150.184 222.59 149.92 223.006 149.392L223.69 149.98C223.122 150.708 222.334 151.072 221.326 151.072C220.486 151.072 219.79 150.796 219.238 150.244C218.694 149.684 218.422 148.964 218.422 148.084C218.422 147.212 218.686 146.496 219.214 145.936C219.75 145.368 220.418 145.084 221.218 145.084C222.026 145.084 222.678 145.356 223.174 145.9C223.678 146.444 223.93 147.14 223.93 147.988ZM222.406 146.416C222.11 146.128 221.73 145.984 221.266 145.984C220.802 145.984 220.402 146.128 220.066 146.416C219.738 146.696 219.53 147.084 219.442 147.58H222.97C222.89 147.092 222.702 146.704 222.406 146.416ZM227.071 151.072C226.167 151.072 225.403 150.792 224.779 150.232L225.283 149.5C225.787 149.964 226.383 150.196 227.071 150.196C227.407 150.196 227.675 150.12 227.875 149.968C228.075 149.816 228.175 149.632 228.175 149.416C228.175 149.192 228.075 149.024 227.875 148.912C227.683 148.792 227.343 148.648 226.855 148.48C226.823 148.472 226.799 148.464 226.783 148.456C226.215 148.256 225.779 148.028 225.475 147.772C225.179 147.516 225.031 147.144 225.031 146.656C225.031 146.208 225.211 145.836 225.571 145.54C225.939 145.236 226.403 145.084 226.963 145.084C227.707 145.084 228.375 145.324 228.967 145.804L228.463 146.572C227.999 146.172 227.483 145.972 226.915 145.972C226.683 145.972 226.475 146.036 226.291 146.164C226.107 146.292 226.015 146.456 226.015 146.656C226.015 146.864 226.103 147.032 226.279 147.16C226.463 147.288 226.743 147.424 227.119 147.568C227.183 147.592 227.299 147.636 227.467 147.7C227.643 147.764 227.759 147.808 227.815 147.832C227.871 147.856 227.967 147.9 228.103 147.964C228.239 148.02 228.331 148.064 228.379 148.096C228.427 148.12 228.499 148.164 228.595 148.228C228.699 148.292 228.767 148.348 228.799 148.396C228.839 148.444 228.887 148.508 228.943 148.588C229.007 148.668 229.051 148.748 229.075 148.828C229.099 148.9 229.119 148.988 229.135 149.092C229.151 149.188 229.159 149.292 229.159 149.404C229.159 149.884 228.979 150.284 228.619 150.604C228.259 150.916 227.743 151.072 227.071 151.072ZM232.248 151.072C231.344 151.072 230.58 150.792 229.956 150.232L230.46 149.5C230.964 149.964 231.56 150.196 232.248 150.196C232.584 150.196 232.852 150.12 233.052 149.968C233.252 149.816 233.352 149.632 233.352 149.416C233.352 149.192 233.252 149.024 233.052 148.912C232.86 148.792 232.52 148.648 232.032 148.48C232 148.472 231.976 148.464 231.96 148.456C231.392 148.256 230.956 148.028 230.652 147.772C230.356 147.516 230.208 147.144 230.208 146.656C230.208 146.208 230.388 145.836 230.748 145.54C231.116 145.236 231.58 145.084 232.14 145.084C232.884 145.084 233.552 145.324 234.144 145.804L233.64 146.572C233.176 146.172 232.66 145.972 232.092 145.972C231.86 145.972 231.652 146.036 231.468 146.164C231.284 146.292 231.192 146.456 231.192 146.656C231.192 146.864 231.28 147.032 231.456 147.16C231.64 147.288 231.92 147.424 232.296 147.568C232.36 147.592 232.476 147.636 232.644 147.7C232.82 147.764 232.936 147.808 232.992 147.832C233.048 147.856 233.144 147.9 233.28 147.964C233.416 148.02 233.508 148.064 233.556 148.096C233.604 148.12 233.676 148.164 233.772 148.228C233.876 148.292 233.944 148.348 233.976 148.396C234.016 148.444 234.064 148.508 234.12 148.588C234.184 148.668 234.228 148.748 234.252 148.828C234.276 148.9 234.296 148.988 234.312 149.092C234.328 149.188 234.336 149.292 234.336 149.404C234.336 149.884 234.156 150.284 233.796 150.604C233.436 150.916 232.92 151.072 232.248 151.072ZM241.714 145.084C241.834 145.084 241.914 145.088 241.954 145.096V146.176C241.778 146.16 241.65 146.152 241.57 146.152C241.026 146.152 240.594 146.34 240.274 146.716C239.954 147.092 239.794 147.58 239.794 148.18V151H238.822V145.156H239.794V146.188H239.806C240.262 145.452 240.898 145.084 241.714 145.084ZM247.339 145.156H248.311V151H247.375V150.076H247.363C246.867 150.74 246.187 151.072 245.323 151.072C244.499 151.072 243.815 150.8 243.271 150.256C242.727 149.712 242.455 149 242.455 148.12C242.455 147.256 242.723 146.536 243.259 145.96C243.803 145.376 244.487 145.084 245.311 145.084C246.143 145.084 246.815 145.4 247.327 146.032H247.339V145.156ZM245.407 150.184C245.951 150.184 246.415 149.992 246.799 149.608C247.183 149.216 247.375 148.72 247.375 148.12C247.375 147.52 247.187 147.016 246.811 146.608C246.443 146.192 245.979 145.984 245.419 145.984C244.859 145.984 244.387 146.184 244.003 146.584C243.627 146.976 243.439 147.488 243.439 148.12C243.439 148.72 243.619 149.216 243.979 149.608C244.347 149.992 244.823 150.184 245.407 150.184ZM251.64 151.072C250.624 151.072 250.116 150.468 250.116 149.26V145.996H249.372V145.156H250.116V143.164L251.088 143.056V145.156H253.032V145.996H251.088V149.116C251.088 149.476 251.14 149.74 251.244 149.908C251.356 150.076 251.544 150.16 251.808 150.16C252.112 150.16 252.44 150.06 252.792 149.86L253.056 150.712C252.624 150.952 252.152 151.072 251.64 151.072ZM259.114 147.988C259.114 148.052 259.11 148.136 259.102 148.24L259.09 148.384H254.59C254.654 148.928 254.862 149.364 255.214 149.692C255.574 150.02 256.018 150.184 256.546 150.184C257.226 150.184 257.774 149.92 258.19 149.392L258.874 149.98C258.306 150.708 257.518 151.072 256.51 151.072C255.67 151.072 254.974 150.796 254.422 150.244C253.878 149.684 253.606 148.964 253.606 148.084C253.606 147.212 253.87 146.496 254.398 145.936C254.934 145.368 255.602 145.084 256.402 145.084C257.21 145.084 257.862 145.356 258.358 145.9C258.862 146.444 259.114 147.14 259.114 147.988ZM257.59 146.416C257.294 146.128 256.914 145.984 256.45 145.984C255.986 145.984 255.586 146.128 255.25 146.416C254.922 146.696 254.714 147.084 254.626 147.58H258.154C258.074 147.092 257.886 146.704 257.59 146.416ZM265.307 151.072C264.291 151.072 263.783 150.468 263.783 149.26V145.996H263.039V145.156H263.783V143.164L264.755 143.056V145.156H266.699V145.996H264.755V149.116C264.755 149.476 264.807 149.74 264.911 149.908C265.023 150.076 265.211 150.16 265.475 150.16C265.779 150.16 266.107 150.06 266.459 149.86L266.723 150.712C266.291 150.952 265.819 151.072 265.307 151.072ZM271.046 145.084C271.71 145.084 272.23 145.284 272.606 145.684C272.982 146.084 273.17 146.688 273.17 147.496V151H272.198V147.772C272.198 146.58 271.722 145.984 270.77 145.984C270.186 145.984 269.722 146.168 269.378 146.536C269.042 146.904 268.874 147.412 268.874 148.06V151H267.902V142.168H268.874V146.116H268.898C269.386 145.428 270.102 145.084 271.046 145.084ZM275.366 144.076C275.166 144.076 274.998 144.012 274.862 143.884C274.734 143.748 274.67 143.584 274.67 143.392C274.67 143.2 274.734 143.04 274.862 142.912C274.998 142.776 275.166 142.708 275.366 142.708C275.558 142.708 275.722 142.776 275.858 142.912C275.994 143.048 276.062 143.208 276.062 143.392C276.062 143.584 275.994 143.748 275.858 143.884C275.722 144.012 275.558 144.076 275.366 144.076ZM274.874 151V145.156H275.846V151H274.874ZM279.458 151.072C278.554 151.072 277.79 150.792 277.166 150.232L277.67 149.5C278.174 149.964 278.77 150.196 279.458 150.196C279.794 150.196 280.062 150.12 280.262 149.968C280.462 149.816 280.562 149.632 280.562 149.416C280.562 149.192 280.462 149.024 280.262 148.912C280.07 148.792 279.73 148.648 279.242 148.48C279.21 148.472 279.186 148.464 279.17 148.456C278.602 148.256 278.166 148.028 277.862 147.772C277.566 147.516 277.418 147.144 277.418 146.656C277.418 146.208 277.598 145.836 277.958 145.54C278.326 145.236 278.79 145.084 279.35 145.084C280.094 145.084 280.762 145.324 281.354 145.804L280.85 146.572C280.386 146.172 279.87 145.972 279.302 145.972C279.07 145.972 278.862 146.036 278.678 146.164C278.494 146.292 278.402 146.456 278.402 146.656C278.402 146.864 278.49 147.032 278.666 147.16C278.85 147.288 279.13 147.424 279.506 147.568C279.57 147.592 279.686 147.636 279.854 147.7C280.03 147.764 280.146 147.808 280.202 147.832C280.258 147.856 280.354 147.9 280.49 147.964C280.626 148.02 280.718 148.064 280.766 148.096C280.814 148.12 280.886 148.164 280.982 148.228C281.086 148.292 281.154 148.348 281.186 148.396C281.226 148.444 281.274 148.508 281.33 148.588C281.394 148.668 281.438 148.748 281.462 148.828C281.486 148.9 281.506 148.988 281.522 149.092C281.538 149.188 281.546 149.292 281.546 149.404C281.546 149.884 281.366 150.284 281.006 150.604C280.646 150.916 280.13 151.072 279.458 151.072ZM290.112 145.156H291.144L287.844 153.376H286.812L287.856 150.76L285.384 145.156H286.428L288.324 149.608H288.348L290.112 145.156ZM297.083 147.988C297.083 148.052 297.079 148.136 297.071 148.24L297.059 148.384H292.559C292.623 148.928 292.831 149.364 293.183 149.692C293.543 150.02 293.987 150.184 294.515 150.184C295.195 150.184 295.743 149.92 296.159 149.392L296.843 149.98C296.275 150.708 295.487 151.072 294.479 151.072C293.639 151.072 292.943 150.796 292.391 150.244C291.847 149.684 291.575 148.964 291.575 148.084C291.575 147.212 291.839 146.496 292.367 145.936C292.903 145.368 293.571 145.084 294.371 145.084C295.179 145.084 295.831 145.356 296.327 145.9C296.831 146.444 297.083 147.14 297.083 147.988ZM295.559 146.416C295.263 146.128 294.883 145.984 294.419 145.984C293.955 145.984 293.555 146.128 293.219 146.416C292.891 146.696 292.683 147.084 292.595 147.58H296.123C296.043 147.092 295.855 146.704 295.559 146.416ZM302.972 145.156H303.944V151H303.008V150.076H302.996C302.5 150.74 301.82 151.072 300.956 151.072C300.132 151.072 299.448 150.8 298.904 150.256C298.36 149.712 298.088 149 298.088 148.12C298.088 147.256 298.356 146.536 298.892 145.96C299.436 145.376 300.12 145.084 300.944 145.084C301.776 145.084 302.448 145.4 302.96 146.032H302.972V145.156ZM301.04 150.184C301.584 150.184 302.048 149.992 302.432 149.608C302.816 149.216 303.008 148.72 303.008 148.12C303.008 147.52 302.82 147.016 302.444 146.608C302.076 146.192 301.612 145.984 301.052 145.984C300.492 145.984 300.02 146.184 299.636 146.584C299.26 146.976 299.072 147.488 299.072 148.12C299.072 148.72 299.252 149.216 299.612 149.608C299.98 149.992 300.456 150.184 301.04 150.184ZM308.509 145.084C308.629 145.084 308.709 145.088 308.749 145.096V146.176C308.573 146.16 308.445 146.152 308.365 146.152C307.821 146.152 307.389 146.34 307.069 146.716C306.749 147.092 306.589 147.58 306.589 148.18V151H305.617V145.156H306.589V146.188H306.601C307.057 145.452 307.693 145.084 308.509 145.084Z" fill="#4A556C"/>
<g clip-path="url(#clip0_508_5817)">
<path d="M159.55 120.451C165.928 126.829 165.928 137.171 159.55 143.549C153.171 149.928 142.829 149.928 136.451 143.549C130.072 137.171 130.072 126.829 136.451 120.451C142.829 114.072 153.171 114.072 159.55 120.451Z" stroke="#20AD96" stroke-width="3" stroke-linecap="round" stroke-linejoin="round"/>
<path d="M151.3 128.7C153.122 130.523 153.122 133.477 151.3 135.3C149.477 137.122 146.522 137.122 144.7 135.3C142.877 133.477 142.877 130.523 144.7 128.7C146.522 126.878 149.477 126.878 151.3 128.7" stroke="#333461" stroke-width="3" stroke-linecap="round" stroke-linejoin="round"/>
<path d="M148 153V143.667" stroke="#20AD96" stroke-width="3" stroke-linecap="round" stroke-linejoin="round"/>
<path d="M148 111V120.333" stroke="#20AD96" stroke-width="3" stroke-linecap="round" stroke-linejoin="round"/>
<path d="M136.333 132H127" stroke="#20AD96" stroke-width="3" stroke-linecap="round" stroke-linejoin="round"/>
<path d="M169 132H159.667" stroke="#20AD96" stroke-width="3" stroke-linecap="round" stroke-linejoin="round"/>
</g>
</g>
<defs>
<filter id="filter0_d_508_5817" x="0" y="0" width="429" height="296" filterUnits="userSpaceOnUse" color-interpolation-filters="sRGB">
<feFlood flood-opacity="0" result="BackgroundImageFix"/>
<feColorMatrix in="SourceAlpha" type="matrix" values="0 0 0 0 0 0 0 0 0 0 0 0 0 0 0 0 0 0 127 0" result="hardAlpha"/>
<feOffset dy="16"/>
<feGaussianBlur stdDeviation="48"/>
<feColorMatrix type="matrix" values="0 0 0 0 0.434444 0 0 0 0 0.487333 0 0 0 0 0.566667 0 0 0 0.16 0"/>
<feBlend mode="normal" in2="BackgroundImageFix" result="effect1_dropShadow_508_5817"/>
<feBlend mode="normal" in="SourceGraphic" in2="effect1_dropShadow_508_5817" result="shape"/>
</filter>
<clipPath id="clip0_508_5817">
<rect width="56" height="56" fill="white" transform="translate(120 104)"/>
</clipPath>
</defs>
</svg>
