<svg width="240" height="240" viewBox="0 0 240 240" fill="none" xmlns="http://www.w3.org/2000/svg">
<g clip-path="url(#clip0_713_978)">
<rect width="240" height="240" rx="50" fill="white"/>
<path d="M34.2857 -1C15.375 -1 0 14.415 0 33.375V205.25C0 224.21 15.375 239.625 34.2857 239.625H205.714C224.625 239.625 240 224.21 240 205.25V33.375C240 14.415 224.625 -1 205.714 -1H34.2857ZM193.446 44.1172L137.839 107.818L203.25 194.508H152.036L111.964 141.925L66.0536 194.508H40.6071L100.071 126.349L37.3393 44.1172H89.8393L126.107 92.1885L168 44.1172H193.446ZM173.196 179.254L82.1786 58.5654H67.0179L159.054 179.254H173.143H173.196Z" fill="#0C111D"/>
</g>
<defs>
<clipPath id="clip0_713_978">
<rect width="240" height="240" rx="50" fill="white"/>
</clipPath>
</defs>
</svg>
