<svg width="183" height="51" viewBox="0 0 183 51" fill="none" xmlns="http://www.w3.org/2000/svg">
<path d="M74.2281 29.904C73.6681 31.7147 72.6881 33.068 71.2881 33.964C69.8881 34.8414 68.2548 35.28 66.3881 35.28C64.5588 35.28 62.9721 34.8974 61.6281 34.132C60.3028 33.3667 59.2761 32.2747 58.5481 30.856C57.8388 29.4374 57.4841 27.7387 57.4841 25.76C57.4841 23.7814 57.8481 22.0827 58.5761 20.664C59.3041 19.2454 60.3308 18.1534 61.6561 17.388C62.9815 16.6227 64.5401 16.24 66.3321 16.24C68.2175 16.24 69.8321 16.6414 71.1761 17.444C72.5388 18.228 73.4721 19.4227 73.9761 21.028L70.4761 22.512C70.1588 21.392 69.6735 20.5987 69.0201 20.132C68.3668 19.6467 67.5268 19.404 66.5001 19.404C64.9695 19.404 63.7468 19.9547 62.8321 21.056C61.9361 22.1387 61.4881 23.7067 61.4881 25.76C61.4881 27.7947 61.9175 29.3627 62.7761 30.464C63.6348 31.5654 64.8761 32.116 66.5001 32.116C67.5081 32.116 68.3761 31.8454 69.1041 31.304C69.8508 30.7627 70.3735 29.9414 70.6721 28.84L74.2281 29.904Z" fill="#475467"/>
<path d="M79.0614 18.984C77.4747 18.984 76.6814 18.3027 76.6814 16.94C76.6814 15.5587 77.4747 14.868 79.0614 14.868C80.6481 14.868 81.4414 15.5587 81.4414 16.94C81.4414 18.3027 80.6481 18.984 79.0614 18.984ZM80.9654 21V35H77.1294V21H80.9654Z" fill="#475467"/>
<path d="M85.0318 35V21H88.3637L88.6157 23.744C88.9704 22.792 89.5024 22.0547 90.2117 21.532C90.9397 20.9907 91.8544 20.72 92.9557 20.72C93.6091 20.72 94.1131 20.8227 94.4677 21.028L94.0197 24.248C93.8331 24.192 93.5997 24.1454 93.3197 24.108C93.0584 24.052 92.7131 24.024 92.2837 24.024C91.7051 24.024 91.1544 24.164 90.6317 24.444C90.1277 24.7054 89.7077 25.116 89.3717 25.676C89.0357 26.2174 88.8678 26.908 88.8678 27.748V35H85.0318Z" fill="#475467"/>
<path d="M102.927 20.72C104.793 20.72 106.24 21.1214 107.267 21.924C108.312 22.7267 109.003 23.6974 109.339 24.836L105.755 26.124C105.381 24.4254 104.457 23.576 102.983 23.576C101.919 23.576 101.088 23.9494 100.491 24.696C99.9121 25.4427 99.6228 26.5534 99.6228 28.028C99.6228 29.5214 99.9215 30.632 100.519 31.36C101.135 32.0694 101.965 32.424 103.011 32.424C104.635 32.424 105.605 31.5934 105.923 29.932L109.395 31.052C109.077 32.3027 108.368 33.32 107.267 34.104C106.184 34.888 104.775 35.28 103.039 35.28C101.583 35.28 100.304 34.9907 99.2028 34.412C98.1201 33.8334 97.2801 33.0027 96.6828 31.92C96.0855 30.8374 95.7868 29.5307 95.7868 28C95.7868 26.4694 96.0855 25.1627 96.6828 24.08C97.2988 22.9974 98.1388 22.1667 99.2028 21.588C100.285 21.0094 101.527 20.72 102.927 20.72Z" fill="#475467"/>
<path d="M118.759 20.72C120.159 20.72 121.401 21.0094 122.483 21.588C123.566 22.1667 124.406 22.9974 125.003 24.08C125.619 25.1627 125.927 26.4694 125.927 28C125.927 29.5307 125.619 30.8374 125.003 31.92C124.406 33.0027 123.566 33.8334 122.483 34.412C121.401 34.9907 120.159 35.28 118.759 35.28C117.341 35.28 116.09 34.9907 115.007 34.412C113.943 33.8334 113.103 33.0027 112.487 31.92C111.89 30.8374 111.591 29.5307 111.591 28C111.591 26.4694 111.89 25.1627 112.487 24.08C113.103 22.9974 113.943 22.1667 115.007 21.588C116.09 21.0094 117.341 20.72 118.759 20.72ZM118.759 23.576C117.714 23.576 116.893 23.9494 116.295 24.696C115.717 25.424 115.427 26.5254 115.427 28C115.427 29.4747 115.717 30.5854 116.295 31.332C116.893 32.06 117.714 32.424 118.759 32.424C119.786 32.424 120.589 32.06 121.167 31.332C121.765 30.5854 122.063 29.4747 122.063 28C122.063 26.5254 121.765 25.424 121.167 24.696C120.589 23.9494 119.786 23.576 118.759 23.576Z" fill="#475467"/>
<path d="M135.521 20.72C136.921 20.72 138.163 21.0094 139.245 21.588C140.328 22.1667 141.168 22.9974 141.765 24.08C142.381 25.1627 142.689 26.4694 142.689 28C142.689 29.5307 142.381 30.8374 141.765 31.92C141.168 33.0027 140.328 33.8334 139.245 34.412C138.163 34.9907 136.921 35.28 135.521 35.28C134.103 35.28 132.852 34.9907 131.769 34.412C130.705 33.8334 129.865 33.0027 129.249 31.92C128.652 30.8374 128.353 29.5307 128.353 28C128.353 26.4694 128.652 25.1627 129.249 24.08C129.865 22.9974 130.705 22.1667 131.769 21.588C132.852 21.0094 134.103 20.72 135.521 20.72ZM135.521 23.576C134.476 23.576 133.655 23.9494 133.057 24.696C132.479 25.424 132.189 26.5254 132.189 28C132.189 29.4747 132.479 30.5854 133.057 31.332C133.655 32.06 134.476 32.424 135.521 32.424C136.548 32.424 137.351 32.06 137.929 31.332C138.527 30.5854 138.825 29.4747 138.825 28C138.825 26.5254 138.527 25.424 137.929 24.696C137.351 23.9494 136.548 23.576 135.521 23.576Z" fill="#475467"/>
<path d="M149.679 14.868V30.688C149.679 31.3414 149.791 31.7987 150.015 32.06C150.239 32.3214 150.612 32.452 151.135 32.452C151.452 32.452 151.714 32.4334 151.919 32.396C152.124 32.3587 152.386 32.284 152.703 32.172L152.367 34.692C152.05 34.8787 151.648 35.0187 151.163 35.112C150.696 35.224 150.23 35.28 149.763 35.28C148.4 35.28 147.402 34.9534 146.767 34.3C146.151 33.628 145.843 32.564 145.843 31.108V14.868H149.679Z" fill="#475467"/>
<path d="M161.336 35.28C159.134 35.28 157.37 34.6454 156.044 33.376C154.719 32.088 154.056 30.296 154.056 28C154.056 26.4694 154.355 25.1627 154.952 24.08C155.55 22.9974 156.38 22.1667 157.444 21.588C158.527 21.0094 159.759 20.72 161.14 20.72C162.559 20.72 163.763 21.0094 164.752 21.588C165.742 22.148 166.498 22.9227 167.02 23.912C167.543 24.8827 167.804 25.9934 167.804 27.244C167.804 27.6174 167.795 27.972 167.776 28.308C167.758 28.644 167.73 28.9427 167.692 29.204H157.808C157.958 30.2867 158.331 31.0987 158.928 31.64C159.544 32.1627 160.338 32.424 161.308 32.424C162.13 32.424 162.792 32.2654 163.296 31.948C163.8 31.6307 164.192 31.192 164.472 30.632L167.524 31.808C167.076 32.9094 166.292 33.768 165.172 34.384C164.052 34.9814 162.774 35.28 161.336 35.28ZM161.112 23.548C159.302 23.548 158.21 24.5467 157.836 26.544H164.136C164.024 25.5734 163.707 24.836 163.184 24.332C162.68 23.8094 161.99 23.548 161.112 23.548Z" fill="#475467"/>
<path d="M176.655 35.28C175.236 35.28 173.939 35.028 172.763 34.524C171.606 34.02 170.663 33.3107 169.935 32.396L172.147 30.156C172.595 30.828 173.192 31.3787 173.939 31.808C174.686 32.2374 175.572 32.452 176.599 32.452C177.327 32.452 177.906 32.3494 178.335 32.144C178.783 31.92 179.007 31.5747 179.007 31.108C179.007 30.8094 178.905 30.5574 178.699 30.352C178.494 30.128 178.083 29.9507 177.467 29.82L175.003 29.316C173.379 28.98 172.222 28.476 171.531 27.804C170.859 27.1134 170.523 26.2267 170.523 25.144C170.523 24.3787 170.747 23.66 171.195 22.988C171.662 22.316 172.352 21.7747 173.267 21.364C174.182 20.9347 175.32 20.72 176.683 20.72C179.52 20.72 181.555 21.588 182.787 23.324L180.491 25.564C180.08 24.9107 179.539 24.416 178.867 24.08C178.214 23.7254 177.523 23.548 176.795 23.548C175.152 23.548 174.331 24.0054 174.331 24.92C174.331 25.2187 174.462 25.48 174.723 25.704C174.984 25.9094 175.46 26.0867 176.151 26.236L179.007 26.824C180.388 27.104 181.378 27.58 181.975 28.252C182.572 28.9054 182.871 29.6987 182.871 30.632C182.871 31.976 182.33 33.0867 181.247 33.964C180.183 34.8414 178.652 35.28 176.655 35.28Z" fill="#475467"/>
<path d="M23.3333 41C38.0609 41 50 29.434 50 15.1667C50 13.5497 49.8467 11.9674 49.5533 10.4328C47.9691 10.1486 46.3358 10 44.6667 10C29.9391 10 18 21.566 18 35.8333C18 37.4503 18.1534 39.0326 18.4467 40.5672C20.0309 40.8514 21.6642 41 23.3333 41Z" fill="#883FFF"/>
</svg>
