<svg width="48" height="48" viewBox="0 0 48 48" fill="none" xmlns="http://www.w3.org/2000/svg">
<rect width="48" height="48" rx="24" fill="#20AD96"/>
<path d="M2.5 24.4999C9.942 24.4999 17.003 22.4289 22.125 17.3069C27.245 12.1869 28.002 4.90792 35.242 4.61192C26.104 -1.26508 16.286 6.63192 10.804 16.0769" stroke="white" stroke-linecap="round" stroke-linejoin="round"/>
<path d="M21.363 2.5C10.506 2.5 2.5 13.64 2.5 24.501M36.75 6.422C39.88 8.23 44.563 12.579 45.5 16.077C40.253 17.483 33.663 17.885 27.397 14.267" stroke="white" stroke-linecap="round" stroke-linejoin="round"/>
<path d="M32.8171 9.12695C33.6631 9.35295 36.4121 10.609 37.0521 11.25M45.5001 23.499C38.0591 23.499 30.9971 25.571 25.8761 30.692C20.7541 35.813 19.9991 43.092 12.7581 43.388C21.8971 49.265 31.7141 41.368 37.1961 31.923" stroke="white" stroke-linecap="round" stroke-linejoin="round"/>
<path d="M26.637 45.5C37.494 45.5 45.5 34.36 45.5 23.499M11.25 41.578C8.12 39.77 3.437 35.42 2.5 31.922C7.747 30.516 14.337 30.114 20.603 33.732" stroke="white" stroke-linecap="round" stroke-linejoin="round"/>
<path d="M15.183 38.873C14.337 38.646 11.588 37.391 10.948 36.75" stroke="white" stroke-linecap="round" stroke-linejoin="round"/>
</svg>
