<svg width="256" height="256" viewBox="0 0 256 256" fill="none" xmlns="http://www.w3.org/2000/svg">
<path d="M89.18 8.41996C63.6016 17.2933 41.5429 34.1353 26.2438 56.472C10.9448 78.8087 3.21184 105.463 4.18086 132.519C5.14988 159.576 14.7698 185.608 31.6275 206.793C48.4853 227.978 71.6924 243.199 97.84 250.22C119.038 255.69 141.248 255.93 162.56 250.92C181.866 246.583 199.716 237.307 214.36 224C229.602 209.727 240.665 191.57 246.36 171.48C252.548 149.633 253.65 126.659 249.58 104.32H130.54V153.7H199.48C198.102 161.576 195.15 169.093 190.799 175.801C186.448 182.509 180.789 188.27 174.16 192.74C165.743 198.311 156.253 202.058 146.3 203.74C136.319 205.596 126.081 205.596 116.1 203.74C105.983 201.651 96.4128 197.475 88 191.48C74.483 181.912 64.3335 168.318 59 152.64C53.5778 136.668 53.5778 119.352 59 103.38C62.7965 92.1843 69.0727 81.9907 77.36 73.56C86.8438 63.7349 98.8506 56.7119 112.063 53.2615C125.276 49.8111 139.183 50.0666 152.26 54C162.476 57.1344 171.818 62.6135 179.54 70C187.313 62.2666 195.073 54.5133 202.82 46.74C206.82 42.56 211.18 38.58 215.12 34.3C203.331 23.3303 189.493 14.794 174.4 9.17996C146.914 -0.800241 116.84 -1.06845 89.18 8.41996Z" fill="white"/>
<path d="M89.18 8.41992C116.837 -1.07494 146.912 -0.813796 174.4 9.15992C189.496 14.8121 203.327 23.3895 215.1 34.3999C211.1 38.6799 206.88 42.6799 202.8 46.8399C195.04 54.5866 187.287 62.3066 179.54 69.9999C171.818 62.6135 162.476 57.1344 152.26 53.9999C139.187 50.0527 125.28 49.7825 112.064 53.2188C98.8484 56.6551 86.8342 63.6651 77.34 73.4799C69.0527 81.9106 62.7765 92.1042 58.98 103.3L17.52 71.1999C32.3602 41.7711 58.055 19.2604 89.18 8.41992Z" fill="#E33629"/>
<path d="M6.52001 103C8.7468 91.9554 12.4465 81.2598 17.52 71.2L58.98 103.38C53.5578 119.352 53.5578 136.668 58.98 152.64C45.1667 163.307 31.3467 174.027 17.52 184.8C4.82303 159.526 0.950666 130.73 6.52001 103Z" fill="#F8BD00"/>
<path d="M130.54 104.3H249.58C253.65 126.639 252.548 149.613 246.36 171.46C240.665 191.55 229.602 209.707 214.36 223.98C200.98 213.54 187.54 203.18 174.16 192.74C180.794 188.266 186.455 182.498 190.806 175.783C195.157 169.067 198.107 161.543 199.48 153.66H130.54C130.52 137.22 130.54 120.76 130.54 104.3Z" fill="#587DBD"/>
<path d="M17.5 184.8C31.3267 174.133 45.1467 163.413 58.96 152.64C64.3042 168.324 74.4681 181.918 88 191.48C96.439 197.447 106.03 201.589 116.16 203.64C126.141 205.496 136.379 205.496 146.36 203.64C156.313 201.958 165.803 198.211 174.22 192.64C187.6 203.08 201.04 213.44 214.42 223.88C199.778 237.194 181.928 246.478 162.62 250.82C141.308 255.83 119.098 255.59 97.9 250.12C81.134 245.643 65.4735 237.752 51.9 226.94C37.5346 215.532 25.8007 201.158 17.5 184.8Z" fill="#319F43"/>
</svg>
