<svg width="256" height="254" viewBox="0 0 256 254" fill="none" xmlns="http://www.w3.org/2000/svg">
<g clip-path="url(#clip0_712_963)">
<path d="M196 -2H60C26.8629 -2 0 24.8629 0 58V194C0 227.137 26.8629 254 60 254H196C229.137 254 256 227.137 256 194V58C256 24.8629 229.137 -2 196 -2Z" fill="url(#paint0_radial_712_963)"/>
<path d="M196 -2H60C26.8629 -2 0 24.8629 0 58V194C0 227.137 26.8629 254 60 254H196C229.137 254 256 227.137 256 194V58C256 24.8629 229.137 -2 196 -2Z" fill="url(#paint1_radial_712_963)"/>
<path d="M128.009 26C100.851 26 97.442 26.119 86.776 26.604C76.13 27.092 68.863 28.777 62.505 31.25C55.927 33.804 50.348 37.221 44.79 42.781C39.227 48.34 35.81 53.919 33.248 60.494C30.768 66.854 29.081 74.124 28.602 84.765C28.125 95.432 28 98.842 28 126.001C28 153.16 28.12 156.558 28.604 167.224C29.094 177.87 30.779 185.137 33.25 191.495C35.806 198.073 39.223 203.652 44.783 209.21C50.34 214.773 55.919 218.198 62.492 220.752C68.855 223.225 76.123 224.91 86.767 225.398C97.434 225.883 100.84 226.002 127.997 226.002C155.158 226.002 158.556 225.883 169.222 225.398C179.868 224.91 187.143 223.225 193.506 220.752C200.081 218.198 205.652 214.773 211.208 209.21C216.771 203.652 220.187 198.073 222.75 191.498C225.208 185.137 226.896 177.868 227.396 167.226C227.875 156.56 228 153.16 228 126.001C228 98.842 227.875 95.434 227.396 84.767C226.896 74.121 225.208 66.855 222.75 60.497C220.187 53.919 216.771 48.34 211.208 42.781C205.646 37.219 200.083 33.802 193.5 31.251C187.125 28.777 179.854 27.091 169.208 26.604C158.541 26.119 155.145 26 127.978 26H128.009ZM119.038 44.021C121.701 44.017 124.672 44.021 128.009 44.021C154.71 44.021 157.874 44.117 168.418 44.596C178.168 45.042 183.46 46.671 186.985 48.04C191.652 49.852 194.979 52.019 198.477 55.52C201.977 59.02 204.143 62.353 205.96 67.02C207.329 70.54 208.96 75.832 209.404 85.582C209.883 96.124 209.987 99.29 209.987 125.978C209.987 152.666 209.883 155.833 209.404 166.374C208.958 176.124 207.329 181.416 205.96 184.937C204.148 189.604 201.977 192.927 198.477 196.425C194.977 199.925 191.654 202.091 186.985 203.904C183.464 205.279 178.168 206.904 168.418 207.35C157.876 207.829 154.71 207.933 128.009 207.933C101.307 207.933 98.142 207.829 87.601 207.35C77.851 206.9 72.559 205.271 69.031 203.902C64.365 202.089 61.031 199.923 57.531 196.423C54.031 192.923 51.865 189.598 50.048 184.929C48.679 181.408 47.048 176.116 46.604 166.366C46.125 155.824 46.029 152.658 46.029 125.953C46.029 99.249 46.125 96.099 46.604 85.557C47.05 75.807 48.679 70.515 50.048 66.99C51.861 62.323 54.031 58.99 57.532 55.49C61.032 51.99 64.365 49.823 69.032 48.007C72.557 46.632 77.851 45.007 87.601 44.559C96.826 44.142 100.401 44.017 119.038 43.996V44.021ZM181.389 60.625C174.764 60.625 169.389 65.995 169.389 72.621C169.389 79.246 174.764 84.621 181.389 84.621C188.014 84.621 193.389 79.246 193.389 72.621C193.389 65.996 188.014 60.621 181.389 60.621V60.625ZM128.009 74.646C99.649 74.646 76.655 97.64 76.655 126.001C76.655 154.362 99.649 177.345 128.009 177.345C156.37 177.345 179.356 154.362 179.356 126.001C179.356 97.641 156.368 74.646 128.007 74.646H128.009ZM128.009 92.667C146.418 92.667 161.343 107.59 161.343 126.001C161.343 144.41 146.418 159.335 128.009 159.335C109.599 159.335 94.676 144.41 94.676 126.001C94.676 107.59 109.599 92.667 128.009 92.667Z" fill="white"/>
</g>
<defs>
<radialGradient id="paint0_radial_712_963" cx="0" cy="0" r="1" gradientUnits="userSpaceOnUse" gradientTransform="translate(68 273.717) rotate(-90) scale(253.715 235.975)">
<stop stop-color="#FFDD55"/>
<stop offset="0.1" stop-color="#FFDD55"/>
<stop offset="0.5" stop-color="#FF543E"/>
<stop offset="1" stop-color="#C837AB"/>
</radialGradient>
<radialGradient id="paint1_radial_712_963" cx="0" cy="0" r="1" gradientUnits="userSpaceOnUse" gradientTransform="translate(-42.881 16.441) rotate(78.681) scale(113.412 467.488)">
<stop stop-color="#3771C8"/>
<stop offset="0.128" stop-color="#3771C8"/>
<stop offset="1" stop-color="#6600FF" stop-opacity="0"/>
</radialGradient>
<clipPath id="clip0_712_963">
<rect width="256" height="256" fill="white" transform="translate(0 -2)"/>
</clipPath>
</defs>
</svg>
