<svg width="240" height="241" viewBox="0 0 240 241" fill="none" xmlns="http://www.w3.org/2000/svg">
<rect x="16" y="36" width="200" height="164" fill="white"/>
<path d="M34.2857 0C15.375 0 0 15.415 0 34.375V206.25C0 225.21 15.375 240.625 34.2857 240.625H205.714C224.625 240.625 240 225.21 240 206.25V34.375C240 15.415 224.625 0 205.714 0H34.2857ZM193.446 45.1172L137.839 108.818L203.25 195.508H152.036L111.964 142.925L66.0536 195.508H40.6071L100.071 127.349L37.3393 45.1172H89.8393L126.107 93.1885L168 45.1172H193.446ZM173.196 180.254L82.1786 59.5654H67.0179L159.054 180.254H173.143H173.196Z" fill="#0C111D"/>
</svg>
