<svg width="152" height="101" viewBox="0 0 152 101" fill="none" xmlns="http://www.w3.org/2000/svg">
<g clip-path="url(#clip0_714_950)">
<path d="M141.867 101H10.1333C7.44581 101 4.86835 99.9357 2.96798 98.0416C1.06762 96.1475 0 93.5785 0 90.8998L0 48.4125H7.30022L8.94689 44.4398H12.6329L14.2753 48.3957H28.6393V45.3867L29.9229 48.4167H37.3793L38.6629 45.3362V48.4083H74.3533V41.9106H75.0289C75.5102 41.9274 75.6495 41.9695 75.6495 42.7691V48.4167H94.1133V46.9059C96.0007 47.8612 98.2258 48.4209 100.586 48.4209L100.987 48.4167H100.966H108.735L110.398 44.4609H114.084L115.71 48.4167H130.682V44.6545L132.945 48.4167H144.919V23.5707H133.068V26.5039L131.408 23.5707H119.223V26.5039L117.699 23.5707H101.245C98.7517 23.4451 96.2679 23.9565 94.0289 25.0562L94.1175 25.0184V23.5707H82.7682V25.0184C81.3945 23.9392 79.6594 23.4229 77.9169 23.5749H77.9422H36.4673L33.6849 29.9926L30.8264 23.5749H17.7629V26.5081L16.3231 23.5749H5.17644L0.0126667 35.3582V10.1082C0.0126667 7.42955 1.08028 4.86058 2.98065 2.96646C4.88102 1.07234 7.45847 0.00823975 10.146 0.00823975H141.879C144.567 0.00823975 147.144 1.07234 149.045 2.96646C150.945 4.86058 152.013 7.42955 152.013 10.1082V54.2116H144.104C143.978 54.2032 143.826 54.2032 143.678 54.2032C141.846 54.2032 140.144 54.7502 138.725 55.6887L138.759 55.6677V54.2116H127.064C125.236 54.1109 123.429 54.6285 121.934 55.6803L121.959 55.6635V54.2074H101.076V55.6635C99.3662 54.7025 97.4355 54.2008 95.4729 54.2074H95.3082H95.3167H81.5395V55.6635C79.7396 54.5143 77.6037 54.0028 75.4764 54.2116L75.5144 54.2074H60.0991L56.5693 58.0117L53.2676 54.2074H30.2396V79.0702H52.8369L56.4722 75.2069L59.8964 79.0702H73.8256V73.2501H75.7678C77.6353 73.3228 79.4979 73.012 81.2398 72.3369L81.1469 72.3705V79.0786H92.6313V72.602H93.1844C93.8853 72.602 93.9571 72.6272 93.9571 73.3342V79.0828H128.858L129.284 79.0912C131.286 79.0912 133.152 78.4937 134.706 77.471L134.668 77.4921V79.0828H145.738L146.266 79.0912C148.339 79.0912 150.311 78.6662 152.101 77.8961L152.004 77.9339V90.904C152.004 93.5827 150.937 96.1517 149.036 98.0458C147.136 99.9399 144.558 101.004 141.871 101.004L141.867 101ZM89.11 75.5857H84.8118V57.7634H94.6749C96.4562 57.5988 98.25 57.8975 99.8809 58.6303L99.8133 58.6051C101.135 59.3289 102.017 60.7092 102.017 62.2916L102.009 62.5735V62.5609L102.013 62.7208C102.013 64.7661 100.776 66.5252 99.0027 67.2911L98.9689 67.3037C99.8175 67.6067 100.527 68.1243 101.055 68.7934L101.063 68.8019C101.659 69.7854 101.909 70.9392 101.772 72.0802L101.777 72.0549V75.5815H97.4869V73.3511C97.69 72.1367 97.4455 70.8901 96.7987 69.8413L96.8113 69.8624C96.3656 69.5252 95.856 69.2816 95.3131 69.1463C94.7703 69.011 94.2056 68.9869 93.6531 69.0754L93.6784 69.0712H89.11V75.5815V75.5857ZM89.11 61.4457V65.4478H94.3033C95.0367 65.5153 95.7747 65.3845 96.4398 65.0691L96.4144 65.0817C96.6861 64.9068 96.9096 64.667 97.0645 64.384C97.2193 64.101 97.3007 63.7838 97.3011 63.4615L97.2969 63.3647C97.3178 63.0431 97.2468 62.7263 97.0921 62.4432C96.9374 62.1602 96.7054 61.9266 96.4229 61.7697L96.4144 61.7655C95.7737 61.4799 95.0698 61.364 94.3709 61.4289H94.3878L89.11 61.4457ZM51.0044 75.5815H34.086V57.7634H51.2704L56.5271 63.6046L61.9611 57.7634H75.6116C80.4587 57.7634 82.8147 59.6866 82.8147 63.634C82.8147 67.653 80.3784 69.6057 75.3835 69.6057H70.0424V75.5773H61.7373L56.4764 69.6898L51.0087 75.5815H51.0044ZM65.7864 59.674L59.2251 66.7019L65.7864 73.9571V59.674ZM38.3462 68.3221V71.8655H48.8511L53.7067 66.6388L49.0369 61.4457H38.342V64.6861H47.7238V68.3179L38.3462 68.3221ZM70.0424 61.4499V65.9865H75.5609C77.2498 65.9865 78.2209 65.128 78.2209 63.6298C78.2209 62.199 77.3173 61.4457 75.6073 61.4457L70.0424 61.4499ZM146.203 75.5899H137.953V71.7603H146.169C146.784 71.8448 147.407 71.6845 147.904 71.3142L147.9 71.3184C148.059 71.1718 148.185 70.994 148.272 70.7963C148.358 70.5986 148.403 70.3852 148.403 70.1696V70.1022C148.403 69.8892 148.357 69.6787 148.267 69.4854C148.177 69.292 148.046 69.1205 147.883 68.9828C147.446 68.6681 146.907 68.527 146.372 68.5872H146.38L145.591 68.562C141.732 68.461 137.362 68.3432 137.362 63.0701C137.362 60.503 138.974 57.7634 143.488 57.7634H152.004V61.5593H144.214C143.612 61.4922 143.005 61.6128 142.475 61.9044L142.492 61.896C142.283 62.0327 142.115 62.2229 142.006 62.4466C141.897 62.6702 141.85 62.919 141.871 63.1669V63.1627V63.209C141.871 63.4926 141.961 63.7689 142.127 63.9986C142.294 64.2283 142.53 64.3997 142.8 64.4883L142.808 64.4925C143.344 64.6571 143.904 64.7254 144.463 64.6945H144.451L146.769 64.7535C148.516 64.5796 150.262 65.0982 151.628 66.1969L151.616 66.1885C151.742 66.2895 151.852 66.3989 151.949 66.521L151.954 66.5252L152.004 73.309C151.294 74.136 150.391 74.7762 149.374 75.1732C148.357 75.5703 147.258 75.7119 146.173 75.5857L146.203 75.5899ZM129.529 75.5899H121.203V71.7603H129.487C130.107 71.8412 130.734 71.6815 131.239 71.3142L131.231 71.3184C131.389 71.1712 131.514 70.9933 131.6 70.7956C131.686 70.598 131.73 70.3849 131.729 70.1696V70.1275C131.729 69.9109 131.682 69.6968 131.593 69.4995C131.503 69.3021 131.373 69.126 131.21 68.9828C130.765 68.6678 130.219 68.527 129.677 68.5872H129.686L128.9 68.562C125.054 68.461 120.688 68.3432 120.688 63.0701C120.688 60.503 122.292 57.7634 126.798 57.7634H135.36V61.5593H127.524C126.926 61.4929 126.323 61.6135 125.797 61.9044L125.814 61.896C125.592 62.0481 125.416 62.2571 125.303 62.501C125.191 62.7448 125.146 63.0143 125.175 63.2812C125.203 63.548 125.304 63.8022 125.465 64.0169C125.627 64.2316 125.843 64.3989 126.092 64.5009L126.101 64.5052C126.643 64.6709 127.211 64.7393 127.777 64.7072H127.764L130.066 64.7661C131.822 64.5974 133.576 65.1166 134.955 66.2137L134.942 66.2011C135.406 66.7109 135.759 67.3111 135.979 67.9637C136.198 68.6164 136.279 69.3073 136.217 69.9928V69.9718C136.23 73.6877 133.971 75.5815 129.517 75.5815L129.529 75.5899ZM118.644 75.5899H104.373V57.7592H118.632V61.4415H108.638V64.6819H118.4V68.3137H108.638V71.8571L118.644 71.8739V75.5773V75.5899ZM126.962 44.928H118.26L116.597 40.9553H107.722L106.109 44.928H101.11C98.8645 45.046 96.6538 44.3409 94.8944 42.9459L94.9155 42.9585C94.0797 42.039 93.4453 40.9561 93.0527 39.7786C92.6602 38.6012 92.5181 37.3552 92.6355 36.12L92.6313 36.1536C92.5226 34.8957 92.6716 33.6288 93.0694 32.4301C93.4672 31.2313 94.1053 30.1257 94.9451 29.1804L94.9367 29.1888C95.8233 28.4161 96.86 27.8335 97.9823 27.4773C99.1045 27.1211 100.288 26.9989 101.46 27.1183L101.426 27.1141H105.564V30.9142H101.511C100.918 30.8381 100.315 30.8933 99.7457 31.0759C99.1764 31.2584 98.6546 31.5639 98.2173 31.9705L98.2215 31.9663C97.3188 33.1186 96.8806 34.5655 96.9929 36.0232V36.0021C96.8583 37.4997 97.2806 38.9944 98.1793 40.202L98.1667 40.1852C99.006 40.8689 100.08 41.1982 101.16 41.1026H101.143H103.06L109.102 27.0889H115.52L122.753 43.9222V27.0889H129.259L136.766 39.495V27.0889H141.157V44.8985H135.06L126.954 31.5245V44.8985L126.962 44.928ZM112.189 30.1231L109.246 37.2267H115.144L112.189 30.1231ZM70.8151 44.9196H66.5422V27.1015H76.3715C78.1658 26.9159 79.977 27.2199 81.6113 27.981L81.548 27.9558C82.2051 28.318 82.753 28.849 83.1346 29.4935C83.5162 30.1381 83.7178 30.8728 83.7182 31.6212L83.7098 31.9158V31.9032V32.0337C83.7101 33.0056 83.429 33.957 82.9003 34.7736C82.3715 35.5902 81.6176 36.2375 80.7289 36.6376L80.6951 36.6502C81.5438 36.97 82.2573 37.4834 82.802 38.1399L82.8104 38.1484C83.4129 39.1355 83.6614 40.2972 83.5156 41.4435L83.5198 41.4182V44.9154H79.2089L79.192 42.6681V42.3315C79.3454 41.2326 79.1014 40.1153 78.5038 39.1794L78.5164 39.2004C78.0692 38.873 77.5614 38.6371 77.0222 38.5064C76.4831 38.3756 75.9232 38.3526 75.3751 38.4387L75.4004 38.4345H70.8193V44.9154L70.8151 44.9196ZM70.8151 30.809V34.7649H76C76.7324 34.8441 77.4723 34.7126 78.1322 34.3861L78.1111 34.3945C78.3816 34.2307 78.6052 34.0002 78.7605 33.7253C78.9158 33.4504 78.9975 33.1403 78.9978 32.8248L78.9935 32.707C79.015 32.3872 78.9421 32.0724 78.7838 31.7935C78.6255 31.5145 78.3887 31.2879 78.1027 31.1415L78.0942 31.1373C77.4517 30.8625 76.752 30.747 76.0549 30.8006H76.0676L70.8151 30.809ZM25.5698 44.9196H16.8889L15.2464 40.9469H6.346L4.69089 44.9196H0.0464444L7.70133 27.1015H14.0473L21.3138 43.9643V27.1015H28.2847L33.8749 39.1836L39.0133 27.1015H46.1278V44.9112H41.7367L41.7282 30.9732L35.5342 44.9154H31.7849L25.574 30.9521V44.9154L25.5698 44.9196ZM10.7751 30.1231L7.866 37.2267H13.7011L10.7751 30.1231ZM90.5244 44.9154H86.1671V27.1015H90.5287V44.9112L90.5244 44.9154ZM63.5613 44.9154H49.3156V27.1015H63.5867V30.8048H53.5884V34.0158H63.346V37.6728H53.58V41.2331H63.5782V44.9112L63.5613 44.9154Z" fill="#016CC9"/>
</g>
<defs>
<clipPath id="clip0_714_950">
<rect width="152" height="101" fill="white"/>
</clipPath>
</defs>
</svg>
