<svg width="136" height="105" viewBox="0 0 136 105" fill="none" xmlns="http://www.w3.org/2000/svg">
<g clip-path="url(#clip0_714_945)">
<path d="M24.7245 104.478V97.5286C24.7245 94.8641 23.0914 93.1271 20.2923 93.1271C18.893 93.1271 17.3768 93.5903 16.327 95.0962C15.511 93.822 14.3449 93.1271 12.5955 93.1271C11.4289 93.1271 10.2633 93.4743 9.32992 94.7485V93.3587H6.88086V104.478H9.32992V98.3391C9.32992 96.3705 10.3797 95.4434 12.0127 95.4434C13.6447 95.4434 14.4618 96.486 14.4618 98.3391V104.478H16.9109V98.3391C16.9109 96.3705 18.0764 95.4434 19.5926 95.4434C21.2257 95.4434 22.0417 96.486 22.0417 98.3391V104.478H24.7245ZM60.9934 93.3587H57.0287V89.9998H54.5797V93.3587H52.3638V95.559H54.5791V100.656C54.5791 103.204 55.6289 104.71 58.428 104.71C59.4778 104.71 60.6434 104.363 61.4604 103.899L60.7602 101.814C60.0606 102.277 59.2446 102.393 58.6613 102.393C57.4952 102.393 57.0287 101.699 57.0287 100.54V95.559H60.9934V93.3587ZM81.7526 93.1265C80.3533 93.1265 79.4204 93.822 78.8371 94.7485V93.3587H76.388V104.478H78.8371V98.2235C78.8371 96.3705 79.6531 95.3279 81.1693 95.3279C81.6357 95.3279 82.219 95.4439 82.6855 95.5595L83.3851 93.2432C82.9187 93.1271 82.219 93.1271 81.7526 93.1271V93.1265ZM50.3812 94.2852C49.2146 93.4743 47.582 93.1271 45.8326 93.1271C43.034 93.1271 41.1683 94.5169 41.1683 96.7177C41.1683 98.5712 42.5676 99.6133 45.0166 99.961L46.1827 100.077C47.4657 100.308 48.1654 100.656 48.1654 101.235C48.1654 102.046 47.2325 102.625 45.5994 102.625C43.9669 102.625 42.6839 102.046 41.8674 101.467L40.7013 103.32C41.9843 104.247 43.7337 104.71 45.4825 104.71C48.7481 104.71 50.6144 103.204 50.6144 101.119C50.6144 99.1501 49.0982 98.1075 46.7655 97.7603L45.5994 97.6442C44.5497 97.5281 43.7337 97.297 43.7337 96.6021C43.7337 95.7911 44.5497 95.3279 45.8326 95.3279C47.2325 95.3279 48.6318 95.9067 49.3315 96.2544L50.3812 94.2852ZM115.457 93.1271C114.057 93.1271 113.124 93.822 112.541 94.7485V93.3587H110.092V104.478H112.541V98.2235C112.541 96.3705 113.357 95.3279 114.873 95.3279C115.34 95.3279 115.923 95.4439 116.39 95.5595L117.089 93.2432C116.623 93.1271 115.923 93.1271 115.457 93.1271ZM84.2016 98.9184C84.2016 102.277 86.5338 104.71 90.1495 104.71C91.782 104.71 92.9481 104.363 94.1142 103.436L92.9481 101.467C92.0153 102.162 91.0824 102.509 90.0326 102.509C88.05 102.509 86.6507 101.119 86.6507 98.9184C86.6507 96.8337 88.05 95.4434 90.0326 95.3279C91.0824 95.3279 92.0153 95.675 92.9481 96.3705L94.1142 94.4013C92.9481 93.4743 91.782 93.1271 90.1495 93.1271C86.5338 93.1271 84.2016 95.5595 84.2016 98.9184ZM106.827 98.9184V93.3587H104.377V94.7485C103.561 93.7064 102.395 93.1271 100.879 93.1271C97.7299 93.1271 95.2809 95.5595 95.2809 98.9184C95.2809 102.277 97.7299 104.71 100.879 104.71C102.511 104.71 103.678 104.131 104.377 103.088V104.478H106.827V98.9184ZM97.8463 98.9184C97.8463 96.9493 99.1292 95.3279 101.228 95.3279C103.211 95.3279 104.611 96.8337 104.611 98.9184C104.611 100.888 103.211 102.509 101.228 102.509C99.1292 102.393 97.8463 100.888 97.8463 98.9184ZM68.5744 93.1271C65.3088 93.1271 62.9761 95.4434 62.9761 98.9184C62.9761 102.393 65.3083 104.71 68.6907 104.71C70.3233 104.71 71.9563 104.247 73.2393 103.204L72.0727 101.467C71.1398 102.162 69.9737 102.625 68.8076 102.625C67.2914 102.625 65.7752 101.93 65.4251 99.9605H73.7057V99.0345C73.8226 95.4434 71.7236 93.1271 68.5744 93.1271ZM68.5744 95.2118C70.09 95.2118 71.1403 96.1388 71.373 97.8763H65.542C65.7752 96.3705 66.825 95.2118 68.5744 95.2118ZM129.335 98.9184V88.9572H126.885V94.7485C126.069 93.7064 124.903 93.1271 123.387 93.1271C120.238 93.1271 117.789 95.5595 117.789 98.9184C117.789 102.277 120.238 104.71 123.387 104.71C125.02 104.71 126.186 104.131 126.885 103.088V104.478H129.335V98.9184ZM120.355 98.9184C120.355 96.9493 121.637 95.3279 123.737 95.3279C125.719 95.3279 127.119 96.8337 127.119 98.9184C127.119 100.888 125.719 102.509 123.737 102.509C121.637 102.393 120.355 100.888 120.355 98.9184ZM38.4855 98.9184V93.3587H36.0364V94.7485C35.2199 93.7064 34.0538 93.1271 32.5376 93.1271C29.3889 93.1271 26.9398 95.5595 26.9398 98.9184C26.9398 102.277 29.3889 104.71 32.5376 104.71C34.1706 104.71 35.3367 104.131 36.0364 103.088V104.478H38.4855V98.9184ZM29.3889 98.9184C29.3889 96.9493 30.6718 95.3279 32.7708 95.3279C34.7534 95.3279 36.1533 96.8337 36.1533 98.9184C36.1533 100.888 34.7534 102.509 32.7708 102.509C30.6718 102.393 29.3889 100.888 29.3889 98.9184Z" fill="black"/>
<path d="M49.5645 8.91867H86.3004V74.4782H49.5645V8.91867Z" fill="#FF5F00"/>
<path d="M51.8973 41.6987C51.8973 28.3785 58.1947 16.5636 67.8741 8.91867C60.7607 3.35894 51.7809 0 41.9847 0C18.776 0 0 18.6483 0 41.6987C0 64.7486 18.776 83.3974 41.9842 83.3974C51.7804 83.3974 60.7601 80.0385 67.8741 74.4782C58.1947 66.9494 51.8973 55.0189 51.8973 41.6987Z" fill="#EB001B"/>
<path d="M135.865 41.6987C135.865 64.7486 117.089 83.3974 93.8809 83.3974C84.0847 83.3974 75.1049 80.0385 67.991 74.4782C77.7872 66.8338 83.9683 55.0189 83.9683 41.6987C83.9683 28.3785 77.6703 16.5636 67.991 8.91867C75.1044 3.35894 84.0847 0 93.8809 0C117.089 0 135.865 18.7644 135.865 41.6987Z" fill="#F79E1B"/>
</g>
<defs>
<clipPath id="clip0_714_945">
<rect width="136" height="105" fill="white"/>
</clipPath>
</defs>
</svg>
