<svg width="131" height="131" viewBox="0 0 131 131" fill="none" xmlns="http://www.w3.org/2000/svg">
<path d="M118.719 114.625H12.2812C5.48563 114.625 0 109.139 0 102.344V28.6562C0 21.8606 5.48563 16.375 12.2812 16.375H118.719C125.514 16.375 131 21.8606 131 28.6562V102.344C131 109.139 125.514 114.625 118.719 114.625ZM12.2812 24.5625C9.98875 24.5625 8.1875 26.3637 8.1875 28.6562V102.344C8.1875 104.636 9.98875 106.438 12.2812 106.438H118.719C121.011 106.438 122.812 104.636 122.812 102.344V28.6562C122.812 26.3637 121.011 24.5625 118.719 24.5625H12.2812Z" fill="#8891E9"/>
<path fill-rule="evenodd" clip-rule="evenodd" d="M69.5938 50.5987L62.7162 52.0725V46.505L69.5938 45.0312V50.5987ZM83.84 53.71C81.1381 53.71 79.4188 54.9381 78.5181 55.8388L78.1906 54.1194H72.2137V85.8869L79.0094 84.4131V76.7169C79.9919 77.4537 81.4656 78.4362 83.84 78.4362C88.7525 78.4362 93.1738 74.5063 93.1738 65.9094C93.1738 58.0494 88.6706 53.71 83.84 53.71ZM82.2025 72.4594C80.565 72.4594 79.6644 71.8862 79.0094 71.1494V61.0788C79.6644 60.26 80.6469 59.7688 82.2025 59.7688C84.6587 59.7688 86.3781 62.5525 86.3781 66.0731C86.3781 69.5937 84.6587 72.4594 82.2025 72.4594ZM114.625 66.155C114.625 59.1956 111.268 53.71 104.8 53.71C98.3319 53.71 94.4019 59.1956 94.4019 66.155C94.4019 74.3425 99.0687 78.5181 105.701 78.5181C108.976 78.5181 111.432 77.7812 113.233 76.7169V71.2312C111.35 72.1319 109.221 72.705 106.519 72.705C103.818 72.705 101.525 71.8044 101.197 68.5294H114.543V66.0731L114.625 66.155ZM101.116 63.535C101.116 60.4238 102.999 59.1956 104.718 59.1956C106.437 59.1956 108.157 60.5056 108.157 63.535H101.116ZM62.7162 54.1194H69.5938V77.945H62.7162V54.1194ZM54.9381 54.1194L55.3475 56.1663C56.985 53.2188 60.1781 53.7919 60.9969 54.1194V60.3419C60.1781 60.0144 57.3944 59.6869 55.8388 61.7337V77.8631H49.0431V54.0375H54.9381V54.1194ZM41.7562 48.2244L35.1244 49.6162V71.395C35.1244 75.4069 38.1538 78.3544 42.1656 78.3544C44.3763 78.3544 46.0138 77.945 46.9144 77.4538V71.8862C46.0138 72.2137 41.7562 73.5237 41.7562 69.43V59.7688H46.9144V53.9556H41.7562V48.0606V48.2244ZM25.6269 59.605C24.1531 59.605 23.3344 60.0144 23.3344 61.0788C23.3344 62.225 24.8081 62.7162 26.6912 63.3712C29.7206 64.4356 33.7325 65.7456 33.7325 70.8219C33.7325 75.7344 29.8025 78.5181 24.1531 78.5181C21.7788 78.5181 19.2406 78.0269 16.7025 76.9625V70.4944C18.995 71.7225 21.8606 72.705 24.1531 72.705C25.7088 72.705 26.7731 72.2956 26.7731 71.0675C26.7731 69.8394 25.1356 69.1844 23.1706 68.4475C20.1412 67.3831 16.375 65.9913 16.375 61.4881C16.375 56.6575 20.0594 53.7919 25.6269 53.7919C27.9194 53.7919 30.13 54.1194 32.4225 55.02V61.4062C30.3756 60.26 27.7556 59.6869 25.6269 59.6869V59.605Z" fill="#8891E9"/>
</svg>
